<svg width="27" height="27" viewBox="0 0 27 27" fill="none" xmlns="http://www.w3.org/2000/svg">
<path d="M7.16327 0H19.8367C23.7931 0 27 3.20694 27 7.16326V19.8367C27 23.7931 23.7931 27 19.8367 27H7.16327C3.20694 27 0 23.7931 0 19.8367V7.16326C0 3.20694 3.20694 0 7.16327 0Z" fill="#FBFBFB"/>
<path d="M13.4411 5.29806H11.3032L7.33032 9.27091V14.2025L15.7885 5.61214C15.0226 5.39724 14.2346 5.29255 13.4411 5.29806Z" fill="#00579B"/>
<path d="M17.122 6.18518L14.9895 8.37824C15.6948 8.81355 16.086 9.61253 16.0089 10.4335C16.0089 11.9103 15.1769 12.836 13.2979 12.836H10.6585V12.8305L7.33032 16.2578V21.8948H10.6585V15.525H13.4411C17.7226 15.525 19.4362 12.9572 19.4362 10.4335C19.4969 8.70334 18.6097 7.07232 17.122 6.18518Z" fill="#2EAD73"/>
</svg>
